HIERARCHY
ROOT Hips
{
  OFFSET 13.6774 106.653 -34.4427
  CHANNELS 6 Xposition Yposition Zposition Zrotation Xrotation Yrotation
  JOINT ToSpine
  {
    OFFSET -2.69724 7.43032 -0.144315
    CHANNELS 3 Zrotation Xrotation Yrotation
    JOINT Spine
    {
      OFFSET -0.0310711 10.7595 1.96963
      CHANNELS 3 Zrotation Xrotation Yrotation
      JOINT Spine1
      {
        OFFSET 19.9056 3.91189 0.764692
        CHANNELS 3 Zrotation Xrotation Yrotation
        JOINT Neck
        {
          OFFSET 25.9749 7.03908 -0.130764
          CHANNELS 3 Zrotation Xrotation Yrotation
          JOINT Head
          {
            OFFSET 9.52751 0.295786 -0.907742
            CHANNELS 3 Zrotation Xrotation Yrotation
            End Site
            {
              OFFSET 16.4037 0.713936 2.7358
            }
          }
        }
        JOINT LeftShoulder
        {
          OFFSET 17.7449 4.33886 11.7777
          CHANNELS 3 Zrotation Xrotation Yrotation
          JOINT LeftArm
          {
            OFFSET 0.911315 1.27913 9.80584
            CHANNELS 3 Zrotation Xrotation Yrotation
            JOINT LeftForeArm
            {
              OFFSET 28.6126 1.18197 -3.53199
              CHANNELS 3 Zrotation Xrotation Yrotation
              JOINT LeftHand
              {
                OFFSET 27.5088 0.0218783 0.327423
                CHANNELS 3 Zrotation Xrotation Yrotation
                End Site
                {
                  OFFSET 18.6038 -0.000155887 0.382096
                }
              }
            }
          }
        }
        JOINT RightShoulder
        {
          OFFSET 17.1009 2.89543 -12.2328
          CHANNELS 3 Zrotation Xrotation Yrotation
          JOINT RightArm
          {
            OFFSET 1.4228 0.178766 -10.211
            CHANNELS 3 Zrotation Xrotation Yrotation
            JOINT RightForeArm
            {
              OFFSET 28.733 1.87905 2.64907
              CHANNELS 3 Zrotation Xrotation Yrotation
              JOINT RightHand
              {
                OFFSET 27.4588 0.290562 -0.101845
                CHANNELS 3 Zrotation Xrotation Yrotation
                End Site
                {
                  OFFSET 17.8396 -0.255518 -0.000602873
                }
              }
            }
          }
        }
      }
    }
  }
  JOINT LeftUpLeg
  {
    OFFSET -5.61296 -2.22332 -10.2353
    CHANNELS 3 Zrotation Xrotation Yrotation
    JOINT LeftLeg
    {
      OFFSET 2.56703 -44.7417 -7.93097
      CHANNELS 3 Zrotation Xrotation Yrotation
      JOINT LeftFoot
      {
        OFFSET 3.16933 -46.5642 -3.96578
        CHANNELS 3 Zrotation Xrotation Yrotation
        JOINT LeftToeBase
        {
          OFFSET 0.346054 -6.02161 12.8035
          CHANNELS 3 Zrotation Xrotation Yrotation
          End Site
          {
            OFFSET 0.134235 -1.35082 5.13018
          }
        }
      }
    }
  }
  JOINT RightUpLeg
  {
    OFFSET -5.7928 -1.72406 10.6446
    CHANNELS 3 Zrotation Xrotation Yrotation
    JOINT RightLeg
    {
      OFFSET -2.57161 -44.7178 -7.85259
      CHANNELS 3 Zrotation Xrotation Yrotation
      JOINT RightFoot
      {
        OFFSET -3.10148 -46.5936 -4.03391
        CHANNELS 3 Zrotation Xrotation Yrotation
        JOINT RightToeBase
        {
          OFFSET -0.0828122 -6.13587 12.8035
          CHANNELS 3 Zrotation Xrotation Yrotation
          End Site
          {
            OFFSET -0.131328 -1.35082 5.13018
          }
        }
      }
    }
  }
}
MOTION
Frames: 8
Frame Time: 0.03333333333333333
0.0000 93.1000 0.0000 76.1186 13.7122 0.7214 -71.0008 -0.3071 87.9991 80.8726 68.0059 4.7059 0.8912 18.1184 3.0813 -140.2468 32.2625 155.5572 -148.4968 73.2475 173.5562 0.6690 -13.1916 -8.2849 -80.9423 15.6491 -157.7263 -3.1353 0.0996 -94.2351 -0.2031 -0.3686 -0.2864 -1.1617 9.3916 16.2075 -48.1443 -1.9862 135.1853 -4.9986 -0.7467 97.9508 0.2266 0.2654 0.1095 -57.3314 15.7461 95.8723 -1.0553 34.1233 4.8985 -3.0446 -6.2237 -0.6161 0.7583 -7.4722 9.3503 -43.0914 -10.7614 82.9437 1.7696 47.9343 -0.0155 -6.9994 -12.0827 1.0226 1.7827 -12.8211 -13.3761 
0.0000 93.1000 0.0000 75.9616 13.9824 1.4020 -70.9972 -0.2429 88.0009 80.8658 68.2235 4.9655 0.8908 18.0330 3.1254 -141.1549 32.7381 155.8296 -148.2809 73.3877 171.6885 1.0625 -13.0705 -7.9814 -81.0206 15.9349 -158.7862 -2.9544 -0.0175 -94.0921 0.1593 -0.3136 -0.2958 -0.9264 9.5398 15.9763 -47.7876 -2.4397 135.8148 -4.1713 -0.8737 98.6598 0.1106 0.2945 0.2500 -57.9215 15.1224 95.3315 -1.2075 33.4225 5.8956 -2.4736 -5.7429 -0.8931 0.9045 -6.3187 9.5041 -42.8824 -11.1441 82.8666 1.9234 49.0648 -0.0760 -6.6853 -13.0710 1.2002 2.0508 -12.1047 -14.7016 
0.0000 93.1000 0.0000 75.1303 14.1809 1.0350 -70.9940 -0.0906 88.0008 80.0517 68.6187 4.9277 1.1032 18.0942 3.0220 -140.2711 33.0184 155.9306 -148.4915 73.7310 172.4393 1.1586 -13.1325 -8.0842 -81.1559 16.1560 -158.7494 -3.1926 0.1024 -94.0543 0.0160 -0.2347 -0.1762 -0.8502 9.4238 15.7490 -47.2098 -2.7379 135.8688 -3.0318 -1.0038 98.1916 0.1572 0.2635 0.2868 -58.0869 14.8906 94.7023 -0.9375 33.3861 7.2170 -2.7508 -6.0934 -0.9516 0.1614 -5.9156 8.3508 -42.0893 -11.1548 82.7522 1.7631 49.8603 -1.1273 -6.4628 -14.1944 1.1227 1.4367 -12.5905 -14.4910 
0.0000 93.1000 0.0000 75.9724 13.7999 0.8336 -70.9931 0.2635 88.0005 80.9815 69.1997 4.8213 0.9622 18.1641 3.3289 -140.4144 33.2629 156.1308 -150.2921 73.8879 174.3576 0.9761 -13.1315 -8.0328 -81.2645 16.9514 -158.6643 -2.7252 -0.1176 -94.0615 -0.0190 0.1120 -0.2170 -0.9391 9.5876 15.8630 -46.9311 -2.9219 136.0816 -3.8074 -0.8910 97.9374 -0.0738 -0.0773 -0.0362 -58.1685 15.1741 93.9394 -0.7619 33.2076 7.3273 -2.9933 -5.7820 -0.9247 0.4025 -6.2163 9.0932 -41.7541 -10.8736 83.1382 2.9605 51.0031 0.1227 -6.9145 -14.0628 1.2128 1.9754 -12.5417 -15.6203 
0.0000 93.1000 0.0000 75.1572 13.7170 -0.2630 -70.9946 -0.1269 88.0033 81.1491 69.0530 4.2896 0.6855 17.8799 3.2404 -140.2742 33.0502 156.9734 -151.2793 73.9088 175.5703 1.2590 -13.1646 -8.0789 -80.0462 17.2573 -159.8894 -1.7319 -0.0859 -93.9280 0.0880 -0.3055 -0.0124 -0.7900 9.3217 15.7614 -46.8936 -3.5111 136.6969 -3.9960 -0.9689 96.9822 0.2840 0.3427 0.2869 -57.7354 14.7733 94.9666 -1.2345 33.4457 5.8627 -3.1139 -6.2659 -1.0417 0.4274 -6.0843 9.9180 -40.7314 -11.1871 83.9465 2.6413 51.3084 -0.0422 -6.8575 -13.7350 0.7889 2.8259 -12.1135 -14.8219 
0.0000 93.1000 0.0000 75.0033 14.0494 -0.2007 -70.9905 0.3600 88.0055 83.0544 68.7850 2.8022 0.4794 17.9606 3.0470 -140.3289 33.0436 157.1439 -152.2963 73.9451 176.6505 1.3658 -13.1750 -8.8460 -78.8824 17.2319 -159.8397 -1.8755 -0.6287 -93.9301 -0.1688 0.1149 -0.0771 -0.6786 9.5443 15.2128 -47.9837 -4.1608 136.9161 -3.8535 -1.2271 96.8532 -0.1334 0.0558 0.0661 -57.1534 15.1707 94.8703 -1.2629 34.2923 4.7933 -3.6828 -6.7969 -1.2496 0.8083 -6.0711 9.9264 -40.0455 -12.1200 83.3169 2.8858 52.2960 -0.0642 -5.8533 -13.8664 0.9522 2.0327 -11.7062 -11.9683 
0.0000 93.1000 0.0000 74.0514 14.8368 -0.1738 -70.9919 0.3082 88.0090 84.0384 69.1280 1.6778 0.2248 18.1371 3.3073 -140.3420 33.1290 157.0323 -152.4649 74.4852 177.4645 1.2575 -12.8296 -9.1248 -77.9718 17.9099 -159.8730 -1.4418 -0.4318 -93.1902 -0.5836 0.0964 0.0976 -0.6604 9.6856 14.8673 -49.1796 -5.0980 135.3500 -1.8148 -1.1270 97.1040 -0.1478 0.1124 -0.0124 -56.2185 14.0504 95.5940 -1.9676 34.2188 2.3331 -4.2496 -7.0824 -1.1402 1.0312 -6.6068 11.0312 -39.1258 -13.9469 82.9675 2.7749 51.8012 -1.1220 -5.9011 -13.7113 0.7739 1.5360 -10.2770 -9.6727 
0.0000 93.1000 0.0000 74.0268 16.0552 0.0313 -70.9939 0.0058 88.0067 86.2002 68.8963 -0.1399 -0.3101 17.9966 3.9102 -140.2160 33.9461 156.9808 -151.4728 75.2708 176.4782 1.7853 -12.7847 -9.7754 -78.2747 19.1227 -159.9962 -0.1584 -0.5810 -93.4221 -0.2336 -0.2638 0.0477 -0.4161 9.1427 15.3981 -52.2424 -6.6774 132.7043 0.2679 -0.6025 97.2383 -0.1268 0.4678 0.2781 -55.0319 13.9018 95.0317 -2.1196 34.3953 -4.1205 -3.7092 -7.7729 -1.4677 1.7852 -8.9948 14.3130 -37.7694 -15.1203 82.0928 2.8312 52.0403 0.8283 -6.5181 -12.7143 0.8560 2.6681 -12.6047 -10.7863 
